<svg id="edP2jNDI1en1" xmlns="http://www.w3.org/2000/svg" xmlns:xlink="http://www.w3.org/1999/xlink" viewBox="0 0 300 300" shape-rendering="geometricPrecision" text-rendering="geometricPrecision"><rect width="251.487843" height="66.421792" rx="3" ry="3" transform="matrix(1.004611 0 0 0.150553 20.000001 19.333432)" fill="#40c4b0" stroke-width="0"/><rect width="251.487843" height="18.655881" rx="3" ry="3" transform="matrix(.893449 0 0 0.536024 19.999999 200)" fill="#40c4b0" stroke-width="0"/><rect width="251.487843" height="18.655881" rx="3" ry="3" transform="matrix(.915869 0 0 0.536024 20.000001 220)" fill="#40c4b0" stroke-width="0"/><rect width="251.487843" height="18.655881" rx="3" ry="3" transform="matrix(.319297 0 0 0.536024 19.700686 240)" fill="#40c4b0" stroke-width="0"/><rect width="251.487843" height="18.655881" rx="3" ry="3" transform="matrix(.23739 0 0 0.536024 20.000001 260)" fill="#40c4b0" stroke-width="0"/><rect width="251.487843" height="18.655881" rx="3" ry="3" transform="matrix(.704073 0 0 0.536024 20 40)" fill="#40c4b0" stroke-width="0"/><rect width="251.487843" height="18.655881" rx="3" ry="3" transform="matrix(.781584 0 0 0.536024 20 60)" fill="#40c4b0" stroke-width="0"/><rect width="251.487843" height="18.655881" rx="3" ry="3" transform="matrix(.888477 0 0 0.536024 20.625197 80)" fill="#40c4b0" stroke-width="0"/><rect width="251.487843" height="18.655881" rx="3" ry="3" transform="matrix(1.024555 0 0 0.536024 21.168437 150)" fill="#40c4b0" stroke-width="0"/><rect width="251.487843" height="18.655881" rx="3" ry="3" transform="matrix(.383591 0 0 0.536024 21.810965 130)" fill="#40c4b0" stroke-width="0"/></svg>
